<svg width="303" height="54" viewBox="0 0 303 54" fill="none" xmlns="http://www.w3.org/2000/svg">
<path d="M6.72525 3.56006C9.22525 3.56014 27.9899 23.5223 54.6002 23.5223C81.2105 23.5223 96.6164 3.56014 101.378 3.56014C106.14 3.56015 119.865 23.5223 150.117 23.5223C177.008 23.5223 192.133 3.56014 195.775 3.56006C199.416 3.55998 215.943 23.5223 245.074 23.5223C274.205 23.5223 290.725 3.56006 293.725 3.56006" stroke="#CDCDCD" stroke-width="2" stroke-linecap="round"/>
<g filter="url(#filter0_f_2307_825)">
<path d="M238.34 34.8341C238.515 31.9951 241.04 28.7715 242.281 27.5146H244.47C245.127 27.5146 248.192 31.7289 247.754 34.8341C247.316 37.9394 243.375 43.7062 242.281 43.0408C241.186 42.3754 238.121 38.383 238.34 34.8341Z" fill="#FB2828"/>
</g>
<path d="M238.132 35.2775C238.308 32.4384 240.833 29.2149 242.073 27.958H244.262C244.919 27.958 247.984 32.1723 247.546 35.2775C247.108 38.3827 243.168 44.1496 242.073 43.4842C240.978 42.8188 237.913 38.8263 238.132 35.2775Z" fill="#FB2828"/>
<g filter="url(#filter1_f_2307_825)">
<path d="M240.317 32.7786C240.423 31.081 241.941 29.1534 242.686 28.4019H244.003C244.398 28.4019 246.24 30.9218 245.977 32.7786C245.714 34.6354 243.345 38.0838 242.686 37.6859C242.028 37.288 240.186 34.9007 240.317 32.7786Z" fill="#FF5340"/>
</g>
<path d="M241.843 25.0747V27.5145H245.127V25.0747H241.843Z" fill="#141414" stroke="black" stroke-width="2" stroke-linejoin="round"/>
<g filter="url(#filter2_f_2307_825)">
<path d="M181.006 27.0006C179.679 24.3652 180.362 20.566 180.87 18.9959L182.933 18.2365C183.551 18.0087 188.654 20.7672 189.874 23.7351C191.095 26.703 190.415 33.2996 189.034 33.0759C187.653 32.8522 182.666 30.2948 181.006 27.0006Z" fill="#FB2828"/>
</g>
<path d="M181.045 27.4752C179.717 24.8398 180.401 21.0407 180.909 19.4705L182.971 18.7111C183.59 18.4833 188.693 21.2418 189.913 24.2097C191.133 27.1776 190.453 33.7743 189.072 33.5505C187.691 33.3268 182.705 30.7694 181.045 27.4752Z" fill="#FB2828"/>
<g filter="url(#filter3_f_2307_825)">
<path d="M181.785 24.4487C180.991 22.8726 181.408 20.5981 181.715 19.6578L182.955 19.2012C183.327 19.0643 186.388 20.7103 187.116 22.4855C187.844 24.2606 187.426 28.2096 186.596 28.077C185.767 27.9445 182.776 26.4187 181.785 24.4487Z" fill="#FF5340"/>
</g>
<path d="M179.163 16.9282L180.444 19.139L183.535 18.0008L182.253 15.79L179.163 16.9282Z" fill="#141414" stroke="black" stroke-width="2" stroke-linejoin="round"/>
<g filter="url(#filter4_f_2307_825)">
<path d="M116.196 27.6572C117.083 24.9066 120.392 22.1614 121.936 21.1326L124.102 21.4882C124.752 21.5949 126.724 26.2179 125.51 29.1863C124.296 32.1548 118.947 37.1596 118.031 36.3305C117.115 35.5013 115.087 31.0955 116.196 27.6572Z" fill="#FB2828"/>
</g>
<path d="M115.878 28.0581C116.766 25.3075 120.075 22.5623 121.618 21.5335L123.784 21.8891C124.434 21.9958 126.407 26.6187 125.193 29.5872C123.979 32.5556 118.629 37.5605 117.714 36.7313C116.798 35.9022 114.769 31.4963 115.878 28.0581Z" fill="#FB2828"/>
<g filter="url(#filter5_f_2307_825)">
<path d="M118.672 25.9645C119.203 24.3198 121.19 22.6796 122.117 22.0651L123.419 22.2789C123.81 22.343 124.999 25.109 124.272 26.8838C123.544 28.6586 120.333 31.6492 119.782 31.1528C119.231 30.6564 118.008 28.0203 118.672 25.9645Z" fill="#FF5340"/>
</g>
<path d="M122.129 18.6675L121.516 21.054L124.762 21.587L125.375 19.2005L122.129 18.6675Z" fill="#141414" stroke="black" stroke-width="2" stroke-linejoin="round"/>
<g filter="url(#filter6_f_2307_825)">
<path d="M10.2293 21.1819C10.9861 18.4063 14.1564 15.5627 15.6469 14.4879L17.8221 14.7776C18.4746 14.8645 20.6547 19.4246 19.5823 22.4279C18.5099 25.4311 13.4109 30.5946 12.46 29.7937C11.509 28.9929 9.28335 24.6515 10.2293 21.1819Z" fill="#FB2828"/>
</g>
<path d="M9.93171 21.5921C10.6885 18.8165 13.8588 15.9729 15.3493 14.898L17.5245 15.1878C18.177 15.2747 20.3571 19.8348 19.2847 22.838C18.2123 25.8413 13.1133 31.0047 12.1624 30.2039C11.2114 29.4031 8.98574 25.0616 9.93171 21.5921Z" fill="#FB2828"/>
<g filter="url(#filter7_f_2307_825)">
<path d="M12.6181 19.4156C13.0712 17.756 14.9751 16.0567 15.8704 15.4145L17.1781 15.5888C17.5704 15.641 18.8839 18.3691 18.2413 20.1647C17.5986 21.9603 14.5369 25.0462 13.9647 24.5668C13.3925 24.0875 12.0518 21.4902 12.6181 19.4156Z" fill="#FF5340"/>
</g>
<path d="M15.7245 12.0195L15.2241 14.4232L18.4836 14.8576L18.9839 12.4539L15.7245 12.0195Z" fill="#141414" stroke="black" stroke-width="2" stroke-linejoin="round"/>
<g filter="url(#filter8_f_2307_825)">
<path d="M283.317 24.0647C282.242 21.3574 283.259 17.6173 283.902 16.0857L286.008 15.4588C286.639 15.2707 291.433 18.3374 292.372 21.3691C293.311 24.4008 292.046 30.9267 290.701 30.6174C289.357 30.308 284.66 27.449 283.317 24.0647Z" fill="#36B021"/>
</g>
<path d="M283.312 24.5398C282.237 21.8325 283.254 18.0924 283.897 16.5608L286.003 15.9339C286.635 15.7458 291.429 18.8125 292.368 21.8442C293.306 24.8759 292.041 31.4018 290.697 31.0925C289.352 30.7831 284.656 27.924 283.312 24.5398Z" fill="#36B021"/>
<g filter="url(#filter9_f_2307_825)">
<path d="M284.314 21.573C283.672 19.9539 284.288 17.7152 284.677 16.7982L285.943 16.4213C286.323 16.3082 289.199 18.1391 289.759 19.9523C290.319 21.7656 289.55 25.6715 288.742 25.4875C287.935 25.3036 285.117 23.5968 284.314 21.573Z" fill="#45D42C"/>
</g>
<path d="M282.399 13.9204L283.466 16.202L286.622 15.2625L285.554 12.9809L282.399 13.9204Z" fill="#141414" stroke="black" stroke-width="2" stroke-linejoin="round"/>
<g filter="url(#filter10_f_2307_825)">
<path d="M214.223 29.765C214.899 26.9758 217.981 24.0732 219.438 22.9706L221.618 23.2195C222.271 23.2941 224.58 27.8122 223.596 30.8349C222.612 33.8576 217.671 39.1157 216.699 38.3329C215.727 37.5501 213.379 33.2515 214.223 29.765Z" fill="#36B021"/>
</g>
<path d="M213.938 30.1805C214.613 27.3913 217.696 24.4888 219.153 23.3862L221.332 23.635C221.986 23.7096 224.294 28.2277 223.311 31.2504C222.327 34.2731 217.386 39.5312 216.414 38.7485C215.441 37.9657 213.094 33.667 213.938 30.1805Z" fill="#36B021"/>
<g filter="url(#filter11_f_2307_825)">
<path d="M216.557 27.9544C216.961 26.2866 218.812 24.5519 219.688 23.8931L220.998 24.0427C221.391 24.0876 222.781 26.7903 222.192 28.5976C221.602 30.4049 218.635 33.5476 218.05 33.0791C217.465 32.6106 216.051 30.0391 216.557 27.9544Z" fill="#45D42C"/>
</g>
<path d="M219.443 20.5024L219.013 22.9152L222.28 23.2882L222.71 20.8755L219.443 20.5024Z" fill="#141414" stroke="black" stroke-width="2" stroke-linejoin="round"/>
<g filter="url(#filter12_f_2307_825)">
<path d="M160.933 34.0694C160.264 31.2799 161.794 27.6663 162.643 26.2082L164.798 25.7883C165.445 25.6623 169.711 29.1652 170.2 32.2636C170.689 35.3619 168.519 41.716 167.244 41.28C165.969 40.8441 161.769 37.5564 160.933 34.0694Z" fill="#36B021"/>
</g>
<path d="M160.861 34.5401C160.192 31.7506 161.722 28.137 162.571 26.6789L164.726 26.259C165.373 26.133 169.639 29.6359 170.128 32.7343C170.618 35.8326 168.447 42.1867 167.172 41.7507C165.898 41.3148 161.697 38.0271 160.861 34.5401Z" fill="#36B021"/>
<g filter="url(#filter13_f_2307_825)">
<path d="M162.266 31.6932C161.867 30.025 162.79 27.8627 163.301 26.99L164.597 26.7375C164.986 26.6618 167.547 28.7545 167.838 30.6075C168.129 32.4604 166.819 36.2623 166.053 36.0023C165.287 35.7423 162.765 33.7784 162.266 31.6932Z" fill="#45D42C"/>
</g>
<path d="M161.476 23.918L162.199 26.2845L165.428 25.6551L164.706 23.2885L161.476 23.918Z" fill="#141414" stroke="black" stroke-width="2" stroke-linejoin="round"/>
<g filter="url(#filter14_f_2307_825)">
<path d="M34.2009 32.5161C34.778 29.7126 37.7537 26.7417 39.1694 25.6067L41.3533 25.8065C42.0085 25.8664 44.4686 30.3313 43.5917 33.3751C42.7148 36.4189 37.9663 41.7864 36.9687 41.0257C35.971 40.265 33.4795 36.0204 34.2009 32.5161Z" fill="#36B021"/>
</g>
<path d="M33.9306 32.9384C34.5077 30.1349 37.4834 27.1641 38.8991 26.0291L41.083 26.2289C41.7382 26.2888 44.1984 30.7536 43.3214 33.7975C42.4445 36.8413 37.6961 42.2088 36.6984 41.4481C35.7008 40.6874 33.2092 36.4428 33.9306 32.9384Z" fill="#36B021"/>
<g filter="url(#filter15_f_2307_825)">
<path d="M36.4665 30.6543C36.8122 28.978 38.5997 27.2022 39.4502 26.5239L40.7633 26.644C41.1572 26.6801 42.6382 29.3508 42.1124 31.1707C41.5866 32.9907 38.7344 36.1991 38.1343 35.7439C37.5342 35.2887 36.0344 32.7497 36.4665 30.6543Z" fill="#45D42C"/>
</g>
<path d="M39.0876 23.1401L38.7421 25.562L42.0154 25.8615L42.3609 23.4397L39.0876 23.1401Z" fill="#141414" stroke="black" stroke-width="2" stroke-linejoin="round"/>
<g filter="url(#filter16_f_2307_825)">
<path d="M197.075 20.0827C197.25 17.2436 199.775 14.0201 201.016 12.7632H203.205C203.862 12.7632 206.927 16.9774 206.489 20.0827C206.051 23.1879 202.11 28.9548 201.016 28.2894C199.921 27.624 196.856 23.6315 197.075 20.0827Z" fill="#9B1EFB"/>
</g>
<path d="M196.867 20.526C197.042 17.687 199.567 14.4634 200.808 13.2065H202.997C203.654 13.2065 206.719 17.4208 206.281 20.526C205.843 23.6313 201.903 29.3981 200.808 28.7327C199.713 28.0673 196.648 24.0749 196.867 20.526Z" fill="#9B1EFB"/>
<g filter="url(#filter17_f_2307_825)">
<path d="M199.052 18.0272C199.157 16.3295 200.675 14.402 201.421 13.6504H202.738C203.132 13.6504 204.975 16.1703 204.712 18.0272C204.449 19.884 202.079 23.3323 201.421 22.9344C200.763 22.5365 198.92 20.1492 199.052 18.0272Z" fill="#AB58F9"/>
</g>
<path d="M200.578 10.3232V12.7631H203.862V10.3232H200.578Z" fill="#141414" stroke="black" stroke-width="2" stroke-linejoin="round"/>
<g filter="url(#filter18_f_2307_825)">
<path d="M100.444 17.3195C100.619 14.4804 103.144 11.2569 104.385 10H106.574C107.231 10 110.296 14.2142 109.858 17.3195C109.42 20.4247 105.479 26.1916 104.385 25.5262C103.29 24.8608 100.225 20.8683 100.444 17.3195Z" fill="#9B1EFB"/>
</g>
<path d="M100.236 17.7628C100.412 14.9238 102.937 11.7002 104.177 10.4434H106.366C107.023 10.4434 110.088 14.6576 109.65 17.7628C109.212 20.8681 105.272 26.6349 104.177 25.9695C103.082 25.3041 100.017 21.3117 100.236 17.7628Z" fill="#9B1EFB"/>
<g filter="url(#filter19_f_2307_825)">
<path d="M102.421 15.264C102.527 13.5663 104.045 11.6388 104.79 10.8872H106.107C106.502 10.8872 108.344 13.4072 108.081 15.264C107.818 17.1208 105.449 20.5691 104.79 20.1712C104.132 19.7734 102.29 17.386 102.421 15.264Z" fill="#AB58F9"/>
</g>
<path d="M103.947 7.56006V9.99989H107.231V7.56006H103.947Z" fill="#141414" stroke="black" stroke-width="2" stroke-linejoin="round"/>
<g filter="url(#filter20_f_2307_825)">
<path d="M62.2341 34.0395C62.0069 31.204 64.0693 27.7726 65.1289 26.4113L67.3128 26.2117C67.968 26.1518 71.6222 30.0577 71.6251 33.1814C71.6279 36.3052 68.5133 42.3915 67.3271 41.8305C66.141 41.2694 62.5182 37.5839 62.2341 34.0395Z" fill="#9B1EFB"/>
</g>
<path d="M62.0904 34.499C61.8632 31.6635 63.9256 28.232 64.9852 26.8707L67.1692 26.6712C67.8243 26.6113 71.4785 30.5171 71.4814 33.6409C71.4842 36.7647 68.3696 42.851 67.1835 42.29C65.9973 41.7289 62.3745 38.0433 62.0904 34.499Z" fill="#9B1EFB"/>
<g filter="url(#filter21_f_2307_825)">
<path d="M63.913 31.8172C63.7777 30.1216 65.0191 28.069 65.6567 27.2546L66.9698 27.1346C67.3637 27.0987 69.5587 29.4333 69.559 31.3013C69.5592 33.1693 67.6841 36.8098 66.9712 36.4747C66.2584 36.1395 64.0822 33.9366 63.913 31.8172Z" fill="#AB58F9"/>
</g>
<path d="M64.3387 24.0249L64.6839 26.4468L67.9572 26.1476L67.612 23.7257L64.3387 24.0249Z" fill="#141414" stroke="black" stroke-width="2" stroke-linejoin="round"/>
<g filter="url(#filter22_f_2307_825)">
<path d="M264.204 31.9002C263.339 29.1454 264.625 25.4659 265.375 23.9705L267.51 23.4512C268.15 23.2955 272.676 26.596 273.382 29.6675C274.088 32.739 272.35 39.1849 271.04 38.8086C269.73 38.4323 265.286 35.3437 264.204 31.9002Z" fill="#D48A13"/>
</g>
<path d="M264.165 32.3733C263.3 29.6185 264.585 25.939 265.336 24.4436L267.47 23.9244C268.111 23.7686 272.636 27.0692 273.343 30.1406C274.049 33.2121 272.311 39.658 271.001 39.2817C269.691 38.9054 265.246 35.8168 264.165 32.3733Z" fill="#D48A13"/>
<g filter="url(#filter23_f_2307_825)">
<path d="M265.378 29.4649C264.861 27.8175 265.638 25.6154 266.091 24.7202L267.374 24.408C267.759 24.3144 270.475 26.2856 270.896 28.1226C271.317 29.9595 270.265 33.817 269.478 33.5928C268.691 33.3686 266.024 31.5241 265.378 29.4649Z" fill="#F7A324"/>
</g>
<path d="M264.045 21.7358L264.934 24.0656L268.132 23.2874L267.243 20.9576L264.045 21.7358Z" fill="#141414" stroke="black" stroke-width="2" stroke-linejoin="round"/>
<g filter="url(#filter24_f_2307_825)">
<path d="M135.735 34.0597C135.91 31.2206 138.435 27.9971 139.676 26.7402H141.865C142.522 26.7402 145.587 30.9545 145.149 34.0597C144.711 37.165 140.77 42.9318 139.676 42.2664C138.581 41.601 135.516 37.6086 135.735 34.0597Z" fill="#D48A13"/>
</g>
<path d="M135.527 34.5031C135.702 31.664 138.227 28.4405 139.468 27.1836H141.657C142.314 27.1836 145.379 31.3978 144.941 34.5031C144.503 37.6083 140.563 43.3752 139.468 42.7098C138.373 42.0444 135.308 38.0519 135.527 34.5031Z" fill="#D48A13"/>
<g filter="url(#filter25_f_2307_825)">
<path d="M137.712 32.0042C137.817 30.3065 139.335 28.379 140.081 27.6274H141.397C141.792 27.6274 143.635 30.1474 143.372 32.0042C143.109 33.861 140.739 37.3094 140.081 36.9115C139.423 36.5136 137.58 34.1263 137.712 32.0042Z" fill="#F7A324"/>
</g>
<path d="M139.238 24.3003V26.7401H142.522V24.3003H139.238Z" fill="#141414" stroke="black" stroke-width="2" stroke-linejoin="round"/>
<g filter="url(#filter26_f_2307_825)">
<path d="M84.3144 26.4295C83.4548 23.6736 84.7474 19.9959 85.5011 18.5015L87.6362 17.9851C88.2767 17.8301 92.7952 21.1367 93.4951 24.2091C94.195 27.2814 92.4448 33.725 91.1358 33.3469C89.8268 32.9689 85.3888 29.8744 84.3144 26.4295Z" fill="#D48A13"/>
</g>
<path d="M84.274 26.9027C83.4145 24.1468 84.707 20.469 85.4607 18.9746L87.5958 18.4582C88.2363 18.3033 92.7548 21.6098 93.4548 24.6822C94.1547 27.7546 92.4045 34.1981 91.0955 33.8201C89.7865 33.442 85.3485 30.3476 84.274 26.9027Z" fill="#D48A13"/>
<g filter="url(#filter27_f_2307_825)">
<path d="M85.4927 23.9958C84.9793 22.3477 85.7602 20.1466 86.2148 19.2521L87.4985 18.9416C87.8835 18.8485 90.5951 20.8233 91.0123 22.6608C91.4294 24.4983 90.3704 28.3543 89.5842 28.1291C88.7979 27.9038 86.1345 26.0558 85.4927 23.9958Z" fill="#F7A324"/>
</g>
<path d="M84.1756 16.2651L85.06 18.596L88.2589 17.8221L87.3744 15.4912L84.1756 16.2651Z" fill="#141414" stroke="black" stroke-width="2" stroke-linejoin="round"/>
<defs>
<filter id="filter0_f_2307_825" x="228.329" y="17.5146" width="29.4677" height="35.5791" filterUnits="userSpaceOnUse" color-interpolation-filters="sRGB">
<feFlood flood-opacity="0" result="BackgroundImageFix"/>
<feBlend mode="normal" in="SourceGraphic" in2="BackgroundImageFix" result="shape"/>
<feGaussianBlur stdDeviation="5" result="effect1_foregroundBlur_2307_825"/>
</filter>
<filter id="filter1_f_2307_825" x="239.311" y="27.4019" width="7.69214" height="11.3159" filterUnits="userSpaceOnUse" color-interpolation-filters="sRGB">
<feFlood flood-opacity="0" result="BackgroundImageFix"/>
<feBlend mode="normal" in="SourceGraphic" in2="BackgroundImageFix" result="shape"/>
<feGaussianBlur stdDeviation="0.5" result="effect1_foregroundBlur_2307_825"/>
</filter>
<filter id="filter2_f_2307_825" x="170.236" y="8.22314" width="30.2739" height="34.8584" filterUnits="userSpaceOnUse" color-interpolation-filters="sRGB">
<feFlood flood-opacity="0" result="BackgroundImageFix"/>
<feBlend mode="normal" in="SourceGraphic" in2="BackgroundImageFix" result="shape"/>
<feGaussianBlur stdDeviation="5" result="effect1_foregroundBlur_2307_825"/>
</filter>
<filter id="filter3_f_2307_825" x="180.327" y="18.1934" width="8.1637" height="10.8867" filterUnits="userSpaceOnUse" color-interpolation-filters="sRGB">
<feFlood flood-opacity="0" result="BackgroundImageFix"/>
<feBlend mode="normal" in="SourceGraphic" in2="BackgroundImageFix" result="shape"/>
<feGaussianBlur stdDeviation="0.5" result="effect1_foregroundBlur_2307_825"/>
</filter>
<filter id="filter4_f_2307_825" x="105.873" y="11.1328" width="30.0245" height="35.2891" filterUnits="userSpaceOnUse" color-interpolation-filters="sRGB">
<feFlood flood-opacity="0" result="BackgroundImageFix"/>
<feBlend mode="normal" in="SourceGraphic" in2="BackgroundImageFix" result="shape"/>
<feGaussianBlur stdDeviation="5" result="effect1_foregroundBlur_2307_825"/>
</filter>
<filter id="filter5_f_2307_825" x="117.479" y="21.0649" width="8.02319" height="11.1426" filterUnits="userSpaceOnUse" color-interpolation-filters="sRGB">
<feFlood flood-opacity="0" result="BackgroundImageFix"/>
<feBlend mode="normal" in="SourceGraphic" in2="BackgroundImageFix" result="shape"/>
<feGaussianBlur stdDeviation="0.5" result="effect1_foregroundBlur_2307_825"/>
</filter>
<filter id="filter6_f_2307_825" x="3.05176e-05" y="4.48779" width="29.8741" height="35.3892" filterUnits="userSpaceOnUse" color-interpolation-filters="sRGB">
<feFlood flood-opacity="0" result="BackgroundImageFix"/>
<feBlend mode="normal" in="SourceGraphic" in2="BackgroundImageFix" result="shape"/>
<feGaussianBlur stdDeviation="5" result="effect1_foregroundBlur_2307_825"/>
</filter>
<filter id="filter7_f_2307_825" x="11.4815" y="14.4146" width="7.93396" height="11.2021" filterUnits="userSpaceOnUse" color-interpolation-filters="sRGB">
<feFlood flood-opacity="0" result="BackgroundImageFix"/>
<feBlend mode="normal" in="SourceGraphic" in2="BackgroundImageFix" result="shape"/>
<feGaussianBlur stdDeviation="0.5" result="effect1_foregroundBlur_2307_825"/>
</filter>
<filter id="filter8_f_2307_825" x="272.846" y="5.45068" width="29.85" height="35.1772" filterUnits="userSpaceOnUse" color-interpolation-filters="sRGB">
<feFlood flood-opacity="0" result="BackgroundImageFix"/>
<feBlend mode="normal" in="SourceGraphic" in2="BackgroundImageFix" result="shape"/>
<feGaussianBlur stdDeviation="5" result="effect1_foregroundBlur_2307_825"/>
</filter>
<filter id="filter9_f_2307_825" x="283.036" y="15.4165" width="7.91443" height="11.0771" filterUnits="userSpaceOnUse" color-interpolation-filters="sRGB">
<feFlood flood-opacity="0" result="BackgroundImageFix"/>
<feBlend mode="normal" in="SourceGraphic" in2="BackgroundImageFix" result="shape"/>
<feGaussianBlur stdDeviation="0.5" result="effect1_foregroundBlur_2307_825"/>
</filter>
<filter id="filter10_f_2307_825" x="204.044" y="12.9707" width="29.7928" height="35.4409" filterUnits="userSpaceOnUse" color-interpolation-filters="sRGB">
<feFlood flood-opacity="0" result="BackgroundImageFix"/>
<feBlend mode="normal" in="SourceGraphic" in2="BackgroundImageFix" result="shape"/>
<feGaussianBlur stdDeviation="5" result="effect1_foregroundBlur_2307_825"/>
</filter>
<filter id="filter11_f_2307_825" x="215.449" y="22.8931" width="7.88574" height="11.2329" filterUnits="userSpaceOnUse" color-interpolation-filters="sRGB">
<feFlood flood-opacity="0" result="BackgroundImageFix"/>
<feBlend mode="normal" in="SourceGraphic" in2="BackgroundImageFix" result="shape"/>
<feGaussianBlur stdDeviation="0.5" result="effect1_foregroundBlur_2307_825"/>
</filter>
<filter id="filter12_f_2307_825" x="150.768" y="15.7852" width="29.5029" height="35.5161" filterUnits="userSpaceOnUse" color-interpolation-filters="sRGB">
<feFlood flood-opacity="0" result="BackgroundImageFix"/>
<feBlend mode="normal" in="SourceGraphic" in2="BackgroundImageFix" result="shape"/>
<feGaussianBlur stdDeviation="5" result="effect1_foregroundBlur_2307_825"/>
</filter>
<filter id="filter13_f_2307_825" x="161.169" y="25.7354" width="7.71088" height="11.2798" filterUnits="userSpaceOnUse" color-interpolation-filters="sRGB">
<feFlood flood-opacity="0" result="BackgroundImageFix"/>
<feBlend mode="normal" in="SourceGraphic" in2="BackgroundImageFix" result="shape"/>
<feGaussianBlur stdDeviation="0.5" result="effect1_foregroundBlur_2307_825"/>
</filter>
<filter id="filter14_f_2307_825" x="24.0717" y="15.6069" width="29.7067" height="35.4917" filterUnits="userSpaceOnUse" color-interpolation-filters="sRGB">
<feFlood flood-opacity="0" result="BackgroundImageFix"/>
<feBlend mode="normal" in="SourceGraphic" in2="BackgroundImageFix" result="shape"/>
<feGaussianBlur stdDeviation="5" result="effect1_foregroundBlur_2307_825"/>
</filter>
<filter id="filter15_f_2307_825" x="35.3895" y="25.5239" width="7.83447" height="11.2637" filterUnits="userSpaceOnUse" color-interpolation-filters="sRGB">
<feFlood flood-opacity="0" result="BackgroundImageFix"/>
<feBlend mode="normal" in="SourceGraphic" in2="BackgroundImageFix" result="shape"/>
<feGaussianBlur stdDeviation="0.5" result="effect1_foregroundBlur_2307_825"/>
</filter>
<filter id="filter16_f_2307_825" x="187.064" y="2.76318" width="29.4677" height="35.5791" filterUnits="userSpaceOnUse" color-interpolation-filters="sRGB">
<feFlood flood-opacity="0" result="BackgroundImageFix"/>
<feBlend mode="normal" in="SourceGraphic" in2="BackgroundImageFix" result="shape"/>
<feGaussianBlur stdDeviation="5" result="effect1_foregroundBlur_2307_825"/>
</filter>
<filter id="filter17_f_2307_825" x="198.045" y="12.6504" width="7.69214" height="11.3159" filterUnits="userSpaceOnUse" color-interpolation-filters="sRGB">
<feFlood flood-opacity="0" result="BackgroundImageFix"/>
<feBlend mode="normal" in="SourceGraphic" in2="BackgroundImageFix" result="shape"/>
<feGaussianBlur stdDeviation="0.5" result="effect1_foregroundBlur_2307_825"/>
</filter>
<filter id="filter18_f_2307_825" x="90.433" y="0" width="29.4677" height="35.5791" filterUnits="userSpaceOnUse" color-interpolation-filters="sRGB">
<feFlood flood-opacity="0" result="BackgroundImageFix"/>
<feBlend mode="normal" in="SourceGraphic" in2="BackgroundImageFix" result="shape"/>
<feGaussianBlur stdDeviation="5" result="effect1_foregroundBlur_2307_825"/>
</filter>
<filter id="filter19_f_2307_825" x="101.415" y="9.88721" width="7.69214" height="11.3159" filterUnits="userSpaceOnUse" color-interpolation-filters="sRGB">
<feFlood flood-opacity="0" result="BackgroundImageFix"/>
<feBlend mode="normal" in="SourceGraphic" in2="BackgroundImageFix" result="shape"/>
<feGaussianBlur stdDeviation="0.5" result="effect1_foregroundBlur_2307_825"/>
</filter>
<filter id="filter20_f_2307_825" x="52.2168" y="16.2109" width="29.4083" height="35.6558" filterUnits="userSpaceOnUse" color-interpolation-filters="sRGB">
<feFlood flood-opacity="0" result="BackgroundImageFix"/>
<feBlend mode="normal" in="SourceGraphic" in2="BackgroundImageFix" result="shape"/>
<feGaussianBlur stdDeviation="5" result="effect1_foregroundBlur_2307_825"/>
</filter>
<filter id="filter21_f_2307_825" x="62.9028" y="26.1343" width="7.65613" height="11.3618" filterUnits="userSpaceOnUse" color-interpolation-filters="sRGB">
<feFlood flood-opacity="0" result="BackgroundImageFix"/>
<feBlend mode="normal" in="SourceGraphic" in2="BackgroundImageFix" result="shape"/>
<feGaussianBlur stdDeviation="0.5" result="effect1_foregroundBlur_2307_825"/>
</filter>
<filter id="filter22_f_2307_825" x="253.916" y="13.4458" width="29.6293" height="35.3784" filterUnits="userSpaceOnUse" color-interpolation-filters="sRGB">
<feFlood flood-opacity="0" result="BackgroundImageFix"/>
<feBlend mode="normal" in="SourceGraphic" in2="BackgroundImageFix" result="shape"/>
<feGaussianBlur stdDeviation="5" result="effect1_foregroundBlur_2307_825"/>
</filter>
<filter id="filter23_f_2307_825" x="264.207" y="23.4048" width="7.78491" height="11.1973" filterUnits="userSpaceOnUse" color-interpolation-filters="sRGB">
<feFlood flood-opacity="0" result="BackgroundImageFix"/>
<feBlend mode="normal" in="SourceGraphic" in2="BackgroundImageFix" result="shape"/>
<feGaussianBlur stdDeviation="0.5" result="effect1_foregroundBlur_2307_825"/>
</filter>
<filter id="filter24_f_2307_825" x="125.724" y="16.7402" width="29.4677" height="35.5791" filterUnits="userSpaceOnUse" color-interpolation-filters="sRGB">
<feFlood flood-opacity="0" result="BackgroundImageFix"/>
<feBlend mode="normal" in="SourceGraphic" in2="BackgroundImageFix" result="shape"/>
<feGaussianBlur stdDeviation="5" result="effect1_foregroundBlur_2307_825"/>
</filter>
<filter id="filter25_f_2307_825" x="136.705" y="26.6274" width="7.69208" height="11.3159" filterUnits="userSpaceOnUse" color-interpolation-filters="sRGB">
<feFlood flood-opacity="0" result="BackgroundImageFix"/>
<feBlend mode="normal" in="SourceGraphic" in2="BackgroundImageFix" result="shape"/>
<feGaussianBlur stdDeviation="0.5" result="effect1_foregroundBlur_2307_825"/>
</filter>
<filter id="filter26_f_2307_825" x="74.03" y="7.97998" width="29.6248" height="35.3828" filterUnits="userSpaceOnUse" color-interpolation-filters="sRGB">
<feFlood flood-opacity="0" result="BackgroundImageFix"/>
<feBlend mode="normal" in="SourceGraphic" in2="BackgroundImageFix" result="shape"/>
<feGaussianBlur stdDeviation="5" result="effect1_foregroundBlur_2307_825"/>
</filter>
<filter id="filter27_f_2307_825" x="84.3241" y="17.9385" width="7.78223" height="11.2002" filterUnits="userSpaceOnUse" color-interpolation-filters="sRGB">
<feFlood flood-opacity="0" result="BackgroundImageFix"/>
<feBlend mode="normal" in="SourceGraphic" in2="BackgroundImageFix" result="shape"/>
<feGaussianBlur stdDeviation="0.5" result="effect1_foregroundBlur_2307_825"/>
</filter>
</defs>
</svg>
