<svg width="295" height="54" viewBox="0 0 295 54" fill="none" xmlns="http://www.w3.org/2000/svg">
<path d="M1 3.56018C3.5 3.56026 23.2643 23.5224 49.8746 23.5224C76.4849 23.5224 91.8909 3.56026 96.6527 3.56026C101.415 3.56027 115.14 23.5224 145.392 23.5224C172.282 23.5224 187.408 3.56026 191.049 3.56018C194.691 3.5601 211.217 23.5224 240.348 23.5224C269.48 23.5224 291 3.5602 294 3.5602" stroke="#CDCDCD" stroke-width="2" stroke-linecap="round"/>
<g filter="url(#filter0_f_2316_1809)">
<path d="M233.615 34.8344C233.79 31.9953 236.315 28.7718 237.556 27.5149H239.745C240.402 27.5149 243.467 31.7291 243.029 34.8344C242.591 37.9396 238.65 43.7065 237.556 43.0411C236.461 42.3757 233.396 38.3832 233.615 34.8344Z" fill="#FB2828"/>
</g>
<path d="M233.407 35.278C233.582 32.4389 236.107 29.2154 237.348 27.9585H239.537C240.194 27.9585 243.259 32.1727 242.821 35.278C242.383 38.3832 238.442 44.1501 237.348 43.4847C236.253 42.8193 233.188 38.8268 233.407 35.278Z" fill="#FB2828"/>
<g filter="url(#filter1_f_2316_1809)">
<path d="M235.592 32.7789C235.697 31.0812 237.215 29.1537 237.961 28.4021H239.277C239.672 28.4021 241.515 30.9221 241.252 32.7789C240.989 34.6357 238.619 38.084 237.961 37.6861C237.303 37.2882 235.46 34.9009 235.592 32.7789Z" fill="#FF5340"/>
</g>
<path d="M237.118 25.0751V27.5149H240.402V25.0751H237.118Z" fill="#141414" stroke="black" stroke-width="2" stroke-linejoin="round"/>
<g filter="url(#filter2_f_2316_1809)">
<path d="M176.281 27.0009C174.953 24.3655 175.637 20.5663 176.145 18.9962L178.207 18.2368C178.826 18.009 183.929 20.7675 185.149 23.7354C186.369 26.7033 185.689 33.2999 184.308 33.0762C182.927 32.8525 177.941 30.2951 176.281 27.0009Z" fill="#FB2828"/>
</g>
<path d="M176.32 27.4752C174.992 24.8398 175.676 21.0407 176.184 19.4705L178.246 18.7111C178.865 18.4833 183.968 21.2418 185.188 24.2097C186.408 27.1776 185.728 33.7743 184.347 33.5505C182.966 33.3268 177.979 30.7694 176.32 27.4752Z" fill="#FB2828"/>
<g filter="url(#filter3_f_2316_1809)">
<path d="M177.059 24.4489C176.266 22.8729 176.682 20.5983 176.99 19.658L178.23 19.2015C178.602 19.0645 181.662 20.7105 182.391 22.4857C183.119 24.2609 182.7 28.2098 181.871 28.0773C181.042 27.9447 178.051 26.419 177.059 24.4489Z" fill="#FF5340"/>
</g>
<path d="M174.437 16.9281L175.719 19.1389L178.809 18.0007L177.528 15.7899L174.437 16.9281Z" fill="#141414" stroke="black" stroke-width="2" stroke-linejoin="round"/>
<g filter="url(#filter4_f_2316_1809)">
<path d="M111.471 27.6571C112.358 24.9065 115.667 22.1613 117.21 21.1325L119.377 21.4881C120.026 21.5948 121.999 26.2177 120.785 29.1862C119.571 32.1546 114.222 37.1595 113.306 36.3303C112.39 35.5012 110.362 31.0953 111.471 27.6571Z" fill="#FB2828"/>
</g>
<path d="M111.153 28.0582C112.041 25.3076 115.35 22.5624 116.893 21.5336L119.059 21.8892C119.709 21.9959 121.682 26.6189 120.468 29.5873C119.254 32.5558 113.904 37.5606 112.989 36.7315C112.073 35.9023 110.044 31.4965 111.153 28.0582Z" fill="#FB2828"/>
<g filter="url(#filter5_f_2316_1809)">
<path d="M113.947 25.9646C114.478 24.32 116.465 22.6798 117.391 22.0652L118.694 22.279C119.085 22.3432 120.274 25.1091 119.547 26.8839C118.819 28.6587 115.608 31.6493 115.057 31.1529C114.506 30.6565 113.283 28.0204 113.947 25.9646Z" fill="#FF5340"/>
</g>
<path d="M117.404 18.6674L116.791 21.0539L120.037 21.587L120.65 19.2004L117.404 18.6674Z" fill="#141414" stroke="black" stroke-width="2" stroke-linejoin="round"/>
<g filter="url(#filter6_f_2316_1809)">
<path d="M5.70649 22.7773C6.46326 20.0017 9.63357 17.1581 11.1241 16.0832L13.2993 16.373C13.9518 16.4599 16.1319 21.02 15.0595 24.0232C13.9871 27.0264 8.88811 32.1899 7.93714 31.3891C6.98617 30.5882 4.76052 26.2468 5.70649 22.7773Z" fill="#FB2828"/>
</g>
<path d="M5.20652 21.592C5.96329 18.8164 9.1336 15.9728 10.6242 14.898L12.7993 15.1877C13.4518 15.2746 15.6319 19.8347 14.5595 22.838C13.4871 25.8412 8.38814 31.0047 7.43717 30.2038C6.4862 29.403 4.26055 25.0616 5.20652 21.592Z" fill="#FB2828"/>
<g filter="url(#filter7_f_2316_1809)">
<path d="M7.89294 19.4158C8.34602 17.7561 10.2499 16.0569 11.1452 15.4147L12.4529 15.5889C12.8452 15.6411 14.1587 18.3692 13.5161 20.1648C12.8734 21.9604 9.81169 25.0463 9.23952 24.567C8.66734 24.0876 7.32659 21.4903 7.89294 19.4158Z" fill="#FF5340"/>
</g>
<path d="M10.9993 12.0197L10.4989 14.4234L13.7584 14.8577L14.2587 12.454L10.9993 12.0197Z" fill="#141414" stroke="black" stroke-width="2" stroke-linejoin="round"/>
<g filter="url(#filter8_f_2316_1809)">
<path d="M277.591 25.0649C276.516 22.3575 277.534 18.6174 278.176 17.0858L280.282 16.4589C280.914 16.2709 285.708 19.3375 286.647 22.3692C287.585 25.4009 286.32 31.9268 284.976 31.6175C283.632 31.3081 278.935 28.4491 277.591 25.0649Z" fill="#36B021"/>
</g>
<path d="M278.587 24.5398C277.512 21.8324 278.529 18.0923 279.172 16.5607L281.278 15.9338C281.91 15.7458 286.704 18.8124 287.642 21.8442C288.581 24.8759 287.316 31.4017 285.972 31.0924C284.627 30.7831 279.93 27.924 278.587 24.5398Z" fill="#36B021"/>
<g filter="url(#filter9_f_2316_1809)">
<path d="M279.589 21.573C278.947 19.9539 279.563 17.7152 279.951 16.7982L281.217 16.4213C281.597 16.3082 284.473 18.1391 285.033 19.9523C285.593 21.7656 284.824 25.6715 284.017 25.4875C283.21 25.3036 280.392 23.5968 279.589 21.573Z" fill="#45D42C"/>
</g>
<path d="M277.674 13.9205L278.741 16.2021L281.896 15.2625L280.829 12.9809L277.674 13.9205Z" fill="#141414" stroke="black" stroke-width="2" stroke-linejoin="round"/>
<g filter="url(#filter10_f_2316_1809)">
<path d="M209.498 29.7649C210.174 26.9757 213.256 24.0732 214.713 22.9706L216.892 23.2194C217.546 23.294 219.854 27.8122 218.871 30.8349C217.887 33.8575 212.946 39.1157 211.974 38.3329C211.001 37.5501 208.654 33.2514 209.498 29.7649Z" fill="#36B021"/>
</g>
<path d="M209.213 30.1808C209.888 27.3916 212.971 24.4891 214.428 23.3865L216.607 23.6353C217.261 23.7099 219.569 28.2281 218.585 31.2507C217.602 34.2734 212.661 39.5316 211.689 38.7488C210.716 37.966 208.369 33.6673 209.213 30.1808Z" fill="#36B021"/>
<g filter="url(#filter11_f_2316_1809)">
<path d="M211.832 27.9545C212.236 26.2868 214.087 24.5521 214.962 23.8933L216.273 24.0429C216.666 24.0877 218.056 26.7905 217.466 28.5978C216.877 30.4051 213.91 33.5478 213.325 33.0793C212.74 32.6108 211.326 30.0392 211.832 27.9545Z" fill="#45D42C"/>
</g>
<path d="M214.718 20.5026L214.288 22.9153L217.554 23.2883L217.984 20.8756L214.718 20.5026Z" fill="#141414" stroke="black" stroke-width="2" stroke-linejoin="round"/>
<g filter="url(#filter12_f_2316_1809)">
<path d="M156.207 34.0696C155.538 31.28 157.069 27.6665 157.918 26.2084L160.073 25.7884C160.719 25.6625 164.986 29.1654 165.475 32.2638C165.964 35.3621 163.794 41.7161 162.519 41.2802C161.244 40.8442 157.044 37.5566 156.207 34.0696Z" fill="#36B021"/>
</g>
<path d="M156.135 34.5402C155.466 31.7506 156.997 28.1371 157.846 26.679L160.001 26.259C160.648 26.133 164.914 29.636 165.403 32.7343C165.892 35.8327 163.722 42.1867 162.447 41.7508C161.172 41.3148 156.972 38.0272 156.135 34.5402Z" fill="#36B021"/>
<g filter="url(#filter13_f_2316_1809)">
<path d="M157.541 31.6933C157.141 30.0252 158.065 27.8629 158.576 26.9902L159.872 26.7377C160.261 26.662 162.822 28.7547 163.113 30.6076C163.404 32.4606 162.093 36.2625 161.328 36.0025C160.562 35.7425 158.04 33.7786 157.541 31.6933Z" fill="#45D42C"/>
</g>
<path d="M156.751 23.9181L157.473 26.2847L160.703 25.6552L159.98 23.2886L156.751 23.9181Z" fill="#141414" stroke="black" stroke-width="2" stroke-linejoin="round"/>
<g filter="url(#filter14_f_2316_1809)">
<path d="M29.4755 32.5165C30.0527 29.7131 33.0284 26.7422 34.4441 25.6072L36.628 25.807C37.2832 25.8669 39.7433 30.3318 38.8664 33.3756C37.9895 36.4194 33.241 41.7869 32.2434 41.0262C31.2457 40.2655 28.7541 36.0209 29.4755 32.5165Z" fill="#36B021"/>
</g>
<path d="M29.2053 32.9386C29.7824 30.1351 32.7581 27.1643 34.1738 26.0293L36.3578 26.229C37.0129 26.289 39.4731 30.7538 38.5962 33.7976C37.7192 36.8415 32.9708 42.2089 31.9731 41.4482C30.9755 40.6875 28.4839 36.443 29.2053 32.9386Z" fill="#36B021"/>
<g filter="url(#filter15_f_2316_1809)">
<path d="M31.7412 30.6547C32.0868 28.9784 33.8743 27.2027 34.7249 26.5244L36.0379 26.6445C36.4318 26.6805 37.9128 29.3512 37.387 31.1712C36.8613 32.9911 34.0091 36.1995 33.409 35.7443C32.8089 35.2891 31.3091 32.7501 31.7412 30.6547Z" fill="#45D42C"/>
</g>
<path d="M34.3623 23.1407L34.0168 25.5626L37.29 25.8621L37.6356 23.4403L34.3623 23.1407Z" fill="#141414" stroke="black" stroke-width="2" stroke-linejoin="round"/>
<g filter="url(#filter16_f_2316_1809)">
<path d="M192.35 20.0827C192.525 17.2436 195.05 14.0201 196.29 12.7632H198.48C199.137 12.7632 202.202 16.9774 201.764 20.0827C201.326 23.1879 197.385 28.9548 196.29 28.2894C195.196 27.624 192.131 23.6315 192.35 20.0827Z" fill="#9B1EFB"/>
</g>
<path d="M192.142 20.5263C192.317 17.6872 194.842 14.4637 196.083 13.2068H198.272C198.929 13.2068 201.994 17.421 201.556 20.5263C201.118 23.6315 197.177 29.3984 196.083 28.733C194.988 28.0676 191.923 24.0751 192.142 20.5263Z" fill="#9B1EFB"/>
<g filter="url(#filter17_f_2316_1809)">
<path d="M194.327 18.0272C194.432 16.3295 195.95 14.402 196.696 13.6504H198.012C198.407 13.6504 200.25 16.1703 199.987 18.0272C199.723 19.884 197.354 23.3323 196.696 22.9344C196.038 22.5365 194.195 20.1492 194.327 18.0272Z" fill="#AB58F9"/>
</g>
<path d="M195.853 10.3234V12.7632H199.137V10.3234H195.853Z" fill="#141414" stroke="black" stroke-width="2" stroke-linejoin="round"/>
<g filter="url(#filter18_f_2316_1809)">
<path d="M95.7189 17.3195C95.8941 14.4804 98.419 11.2569 99.6596 10H101.849C102.506 10 105.571 14.2142 105.133 17.3195C104.695 20.4247 100.754 26.1916 99.6596 25.5262C98.565 24.8608 95.5 20.8683 95.7189 17.3195Z" fill="#9B1EFB"/>
</g>
<path d="M95.5111 17.7631C95.6863 14.924 98.2113 11.7005 99.4518 10.4436H101.641C102.298 10.4436 105.363 14.6579 104.925 17.7631C104.487 20.8683 100.546 26.6352 99.4518 25.9698C98.3572 25.3044 95.2922 21.3119 95.5111 17.7631Z" fill="#9B1EFB"/>
<g filter="url(#filter19_f_2316_1809)">
<path d="M97.696 15.264C97.8013 13.5663 99.3193 11.6388 100.065 10.8872H101.381C101.776 10.8872 103.619 13.4072 103.356 15.264C103.093 17.1208 100.723 20.5691 100.065 20.1712C99.4071 19.7734 97.5644 17.386 97.696 15.264Z" fill="#AB58F9"/>
</g>
<path d="M99.2218 7.56018V10H102.506V7.56018H99.2218Z" fill="#141414" stroke="black" stroke-width="2" stroke-linejoin="round"/>
<g filter="url(#filter20_f_2316_1809)">
<path d="M57.5088 34.0397C57.2816 31.2042 59.344 27.7728 60.4036 26.4114L62.5875 26.2119C63.2427 26.152 66.8969 30.0579 66.8997 33.1816C66.9026 36.3054 63.788 42.3917 62.6018 41.8307C61.4157 41.2696 57.7929 37.5841 57.5088 34.0397Z" fill="#9B1EFB"/>
</g>
<path d="M57.3651 34.4992C57.1379 31.6638 59.2002 28.2323 60.2599 26.871L62.4438 26.6714C63.099 26.6116 66.7532 30.5174 66.756 33.6411C66.7589 36.7649 63.6443 42.8512 62.4581 42.2902C61.2719 41.7292 57.6492 38.0436 57.3651 34.4992Z" fill="#9B1EFB"/>
<g filter="url(#filter21_f_2316_1809)">
<path d="M59.1877 31.8173C59.0524 30.1217 60.2938 28.0691 60.9315 27.2547L62.2445 27.1348C62.6384 27.0988 64.8334 29.4334 64.8337 31.3014C64.834 33.1694 62.9588 36.81 62.2459 36.4748C61.5331 36.1396 59.3569 33.9367 59.1877 31.8173Z" fill="#AB58F9"/>
</g>
<path d="M59.6134 24.0252L59.9586 26.4471L63.2319 26.1479L62.8867 23.726L59.6134 24.0252Z" fill="#141414" stroke="black" stroke-width="2" stroke-linejoin="round"/>
<g filter="url(#filter22_f_2316_1809)">
<path d="M259.479 31.9003C258.614 29.1455 259.899 25.466 260.65 23.9706L262.785 23.4513C263.425 23.2956 267.951 26.5961 268.657 29.6676C269.363 32.7391 267.625 39.185 266.315 38.8087C265.005 38.4324 260.56 35.3438 259.479 31.9003Z" fill="#D48A13"/>
</g>
<path d="M259.44 32.3738C258.574 29.619 259.86 25.9394 260.611 24.444L262.745 23.9248C263.386 23.769 267.911 27.0696 268.617 30.1411C269.324 33.2125 267.586 39.6585 266.276 39.2822C264.966 38.9059 260.521 35.8173 259.44 32.3738Z" fill="#D48A13"/>
<g filter="url(#filter23_f_2316_1809)">
<path d="M260.653 29.4653C260.136 27.8179 260.913 25.6158 261.366 24.7206L262.649 24.4085C263.034 24.3148 265.75 26.286 266.171 28.123C266.591 29.9599 265.54 33.8174 264.753 33.5932C263.966 33.369 261.299 31.5246 260.653 29.4653Z" fill="#F7A324"/>
</g>
<path d="M259.32 21.7361L260.209 24.0658L263.407 23.2876L262.518 20.9579L259.32 21.7361Z" fill="#141414" stroke="black" stroke-width="2" stroke-linejoin="round"/>
<g filter="url(#filter24_f_2316_1809)">
<path d="M131.01 34.0597C131.185 31.2206 133.71 27.9971 134.95 26.7402H137.14C137.796 26.7402 140.861 30.9545 140.424 34.0597C139.986 37.165 136.045 42.9318 134.95 42.2664C133.856 41.601 130.791 37.6086 131.01 34.0597Z" fill="#D48A13"/>
</g>
<path d="M130.802 34.5033C130.977 31.6642 133.502 28.4407 134.743 27.1838H136.932C137.589 27.1838 140.654 31.3981 140.216 34.5033C139.778 37.6086 135.837 43.3754 134.743 42.71C133.648 42.0446 130.583 38.0522 130.802 34.5033Z" fill="#D48A13"/>
<g filter="url(#filter25_f_2316_1809)">
<path d="M132.987 32.0042C133.092 30.3065 134.61 28.379 135.356 27.6274H136.672C137.067 27.6274 138.91 30.1474 138.647 32.0042C138.383 33.861 136.014 37.3094 135.356 36.9115C134.698 36.5136 132.855 34.1263 132.987 32.0042Z" fill="#F7A324"/>
</g>
<path d="M134.513 24.3004V26.7402H137.796V24.3004H134.513Z" fill="#141414" stroke="black" stroke-width="2" stroke-linejoin="round"/>
<g filter="url(#filter26_f_2316_1809)">
<path d="M79.589 26.4293C78.7295 23.6734 80.022 19.9956 80.7757 18.5012L82.9108 17.9848C83.5513 17.8299 88.0698 21.1364 88.7697 24.2088C89.4697 27.2812 87.7195 33.7247 86.4104 33.3467C85.1014 32.9686 80.6634 29.8742 79.589 26.4293Z" fill="#D48A13"/>
</g>
<path d="M79.5487 26.9026C78.6891 24.1467 79.9817 20.4689 80.7354 18.9745L82.8704 18.4581C83.511 18.3032 88.0294 21.6098 88.7294 24.6821C89.4293 27.7545 87.6791 34.1981 86.3701 33.82C85.0611 33.442 80.6231 30.3475 79.5487 26.9026Z" fill="#D48A13"/>
<g filter="url(#filter27_f_2316_1809)">
<path d="M80.7674 23.9958C80.2539 22.3478 81.0348 20.1467 81.4895 19.2521L82.7731 18.9417C83.1582 18.8485 85.8698 20.8234 86.2869 22.6608C86.704 24.4983 85.645 28.3543 84.8588 28.1291C84.0726 27.9039 81.4091 26.0559 80.7674 23.9958Z" fill="#F7A324"/>
</g>
<path d="M79.4502 16.265L80.3347 18.5959L83.5335 17.822L82.6491 15.4911L79.4502 16.265Z" fill="#141414" stroke="black" stroke-width="2" stroke-linejoin="round"/>
<defs>
<filter id="filter0_f_2316_1809" x="223.604" y="17.5149" width="29.4677" height="35.5792" filterUnits="userSpaceOnUse" color-interpolation-filters="sRGB">
<feFlood flood-opacity="0" result="BackgroundImageFix"/>
<feBlend mode="normal" in="SourceGraphic" in2="BackgroundImageFix" result="shape"/>
<feGaussianBlur stdDeviation="5" result="effect1_foregroundBlur_2316_1809"/>
</filter>
<filter id="filter1_f_2316_1809" x="234.585" y="27.4021" width="7.69214" height="11.3157" filterUnits="userSpaceOnUse" color-interpolation-filters="sRGB">
<feFlood flood-opacity="0" result="BackgroundImageFix"/>
<feBlend mode="normal" in="SourceGraphic" in2="BackgroundImageFix" result="shape"/>
<feGaussianBlur stdDeviation="0.5" result="effect1_foregroundBlur_2316_1809"/>
</filter>
<filter id="filter2_f_2316_1809" x="165.51" y="8.22363" width="30.2739" height="34.8582" filterUnits="userSpaceOnUse" color-interpolation-filters="sRGB">
<feFlood flood-opacity="0" result="BackgroundImageFix"/>
<feBlend mode="normal" in="SourceGraphic" in2="BackgroundImageFix" result="shape"/>
<feGaussianBlur stdDeviation="5" result="effect1_foregroundBlur_2316_1809"/>
</filter>
<filter id="filter3_f_2316_1809" x="175.602" y="18.1935" width="8.16367" height="10.8871" filterUnits="userSpaceOnUse" color-interpolation-filters="sRGB">
<feFlood flood-opacity="0" result="BackgroundImageFix"/>
<feBlend mode="normal" in="SourceGraphic" in2="BackgroundImageFix" result="shape"/>
<feGaussianBlur stdDeviation="0.5" result="effect1_foregroundBlur_2316_1809"/>
</filter>
<filter id="filter4_f_2316_1809" x="101.147" y="11.1325" width="30.0245" height="35.2892" filterUnits="userSpaceOnUse" color-interpolation-filters="sRGB">
<feFlood flood-opacity="0" result="BackgroundImageFix"/>
<feBlend mode="normal" in="SourceGraphic" in2="BackgroundImageFix" result="shape"/>
<feGaussianBlur stdDeviation="5" result="effect1_foregroundBlur_2316_1809"/>
</filter>
<filter id="filter5_f_2316_1809" x="112.754" y="21.0652" width="8.02322" height="11.1425" filterUnits="userSpaceOnUse" color-interpolation-filters="sRGB">
<feFlood flood-opacity="0" result="BackgroundImageFix"/>
<feBlend mode="normal" in="SourceGraphic" in2="BackgroundImageFix" result="shape"/>
<feGaussianBlur stdDeviation="0.5" result="effect1_foregroundBlur_2316_1809"/>
</filter>
<filter id="filter6_f_2316_1809" x="0.477173" y="11.0832" width="19.8741" height="25.3892" filterUnits="userSpaceOnUse" color-interpolation-filters="sRGB">
<feFlood flood-opacity="0" result="BackgroundImageFix"/>
<feBlend mode="normal" in="SourceGraphic" in2="BackgroundImageFix" result="shape"/>
<feGaussianBlur stdDeviation="2.5" result="effect1_foregroundBlur_2316_1809"/>
</filter>
<filter id="filter7_f_2316_1809" x="6.75629" y="14.4147" width="7.93399" height="11.2022" filterUnits="userSpaceOnUse" color-interpolation-filters="sRGB">
<feFlood flood-opacity="0" result="BackgroundImageFix"/>
<feBlend mode="normal" in="SourceGraphic" in2="BackgroundImageFix" result="shape"/>
<feGaussianBlur stdDeviation="0.5" result="effect1_foregroundBlur_2316_1809"/>
</filter>
<filter id="filter8_f_2316_1809" x="270.121" y="9.45068" width="23.85" height="29.1774" filterUnits="userSpaceOnUse" color-interpolation-filters="sRGB">
<feFlood flood-opacity="0" result="BackgroundImageFix"/>
<feBlend mode="normal" in="SourceGraphic" in2="BackgroundImageFix" result="shape"/>
<feGaussianBlur stdDeviation="3.5" result="effect1_foregroundBlur_2316_1809"/>
</filter>
<filter id="filter9_f_2316_1809" x="278.31" y="15.4163" width="7.91443" height="11.0775" filterUnits="userSpaceOnUse" color-interpolation-filters="sRGB">
<feFlood flood-opacity="0" result="BackgroundImageFix"/>
<feBlend mode="normal" in="SourceGraphic" in2="BackgroundImageFix" result="shape"/>
<feGaussianBlur stdDeviation="0.5" result="effect1_foregroundBlur_2316_1809"/>
</filter>
<filter id="filter10_f_2316_1809" x="199.318" y="12.9706" width="29.7928" height="35.4408" filterUnits="userSpaceOnUse" color-interpolation-filters="sRGB">
<feFlood flood-opacity="0" result="BackgroundImageFix"/>
<feBlend mode="normal" in="SourceGraphic" in2="BackgroundImageFix" result="shape"/>
<feGaussianBlur stdDeviation="5" result="effect1_foregroundBlur_2316_1809"/>
</filter>
<filter id="filter11_f_2316_1809" x="210.724" y="22.8932" width="7.88574" height="11.2331" filterUnits="userSpaceOnUse" color-interpolation-filters="sRGB">
<feFlood flood-opacity="0" result="BackgroundImageFix"/>
<feBlend mode="normal" in="SourceGraphic" in2="BackgroundImageFix" result="shape"/>
<feGaussianBlur stdDeviation="0.5" result="effect1_foregroundBlur_2316_1809"/>
</filter>
<filter id="filter12_f_2316_1809" x="146.043" y="15.7852" width="29.5029" height="35.5164" filterUnits="userSpaceOnUse" color-interpolation-filters="sRGB">
<feFlood flood-opacity="0" result="BackgroundImageFix"/>
<feBlend mode="normal" in="SourceGraphic" in2="BackgroundImageFix" result="shape"/>
<feGaussianBlur stdDeviation="5" result="effect1_foregroundBlur_2316_1809"/>
</filter>
<filter id="filter13_f_2316_1809" x="156.443" y="25.7357" width="7.71088" height="11.2795" filterUnits="userSpaceOnUse" color-interpolation-filters="sRGB">
<feFlood flood-opacity="0" result="BackgroundImageFix"/>
<feBlend mode="normal" in="SourceGraphic" in2="BackgroundImageFix" result="shape"/>
<feGaussianBlur stdDeviation="0.5" result="effect1_foregroundBlur_2316_1809"/>
</filter>
<filter id="filter14_f_2316_1809" x="19.3464" y="15.6072" width="29.7067" height="35.492" filterUnits="userSpaceOnUse" color-interpolation-filters="sRGB">
<feFlood flood-opacity="0" result="BackgroundImageFix"/>
<feBlend mode="normal" in="SourceGraphic" in2="BackgroundImageFix" result="shape"/>
<feGaussianBlur stdDeviation="5" result="effect1_foregroundBlur_2316_1809"/>
</filter>
<filter id="filter15_f_2316_1809" x="30.6641" y="25.5244" width="7.83453" height="11.2637" filterUnits="userSpaceOnUse" color-interpolation-filters="sRGB">
<feFlood flood-opacity="0" result="BackgroundImageFix"/>
<feBlend mode="normal" in="SourceGraphic" in2="BackgroundImageFix" result="shape"/>
<feGaussianBlur stdDeviation="0.5" result="effect1_foregroundBlur_2316_1809"/>
</filter>
<filter id="filter16_f_2316_1809" x="182.339" y="2.76318" width="29.4677" height="35.5792" filterUnits="userSpaceOnUse" color-interpolation-filters="sRGB">
<feFlood flood-opacity="0" result="BackgroundImageFix"/>
<feBlend mode="normal" in="SourceGraphic" in2="BackgroundImageFix" result="shape"/>
<feGaussianBlur stdDeviation="5" result="effect1_foregroundBlur_2316_1809"/>
</filter>
<filter id="filter17_f_2316_1809" x="193.32" y="12.6504" width="7.69214" height="11.3157" filterUnits="userSpaceOnUse" color-interpolation-filters="sRGB">
<feFlood flood-opacity="0" result="BackgroundImageFix"/>
<feBlend mode="normal" in="SourceGraphic" in2="BackgroundImageFix" result="shape"/>
<feGaussianBlur stdDeviation="0.5" result="effect1_foregroundBlur_2316_1809"/>
</filter>
<filter id="filter18_f_2316_1809" x="85.7078" y="0" width="29.4677" height="35.5792" filterUnits="userSpaceOnUse" color-interpolation-filters="sRGB">
<feFlood flood-opacity="0" result="BackgroundImageFix"/>
<feBlend mode="normal" in="SourceGraphic" in2="BackgroundImageFix" result="shape"/>
<feGaussianBlur stdDeviation="5" result="effect1_foregroundBlur_2316_1809"/>
</filter>
<filter id="filter19_f_2316_1809" x="96.6893" y="9.88721" width="7.69211" height="11.3157" filterUnits="userSpaceOnUse" color-interpolation-filters="sRGB">
<feFlood flood-opacity="0" result="BackgroundImageFix"/>
<feBlend mode="normal" in="SourceGraphic" in2="BackgroundImageFix" result="shape"/>
<feGaussianBlur stdDeviation="0.5" result="effect1_foregroundBlur_2316_1809"/>
</filter>
<filter id="filter20_f_2316_1809" x="47.4915" y="16.2112" width="29.4083" height="35.6558" filterUnits="userSpaceOnUse" color-interpolation-filters="sRGB">
<feFlood flood-opacity="0" result="BackgroundImageFix"/>
<feBlend mode="normal" in="SourceGraphic" in2="BackgroundImageFix" result="shape"/>
<feGaussianBlur stdDeviation="5" result="effect1_foregroundBlur_2316_1809"/>
</filter>
<filter id="filter21_f_2316_1809" x="58.1775" y="26.1343" width="7.65616" height="11.3621" filterUnits="userSpaceOnUse" color-interpolation-filters="sRGB">
<feFlood flood-opacity="0" result="BackgroundImageFix"/>
<feBlend mode="normal" in="SourceGraphic" in2="BackgroundImageFix" result="shape"/>
<feGaussianBlur stdDeviation="0.5" result="effect1_foregroundBlur_2316_1809"/>
</filter>
<filter id="filter22_f_2316_1809" x="249.191" y="13.446" width="29.6293" height="35.3785" filterUnits="userSpaceOnUse" color-interpolation-filters="sRGB">
<feFlood flood-opacity="0" result="BackgroundImageFix"/>
<feBlend mode="normal" in="SourceGraphic" in2="BackgroundImageFix" result="shape"/>
<feGaussianBlur stdDeviation="5" result="effect1_foregroundBlur_2316_1809"/>
</filter>
<filter id="filter23_f_2316_1809" x="259.482" y="23.4053" width="7.78491" height="11.1973" filterUnits="userSpaceOnUse" color-interpolation-filters="sRGB">
<feFlood flood-opacity="0" result="BackgroundImageFix"/>
<feBlend mode="normal" in="SourceGraphic" in2="BackgroundImageFix" result="shape"/>
<feGaussianBlur stdDeviation="0.5" result="effect1_foregroundBlur_2316_1809"/>
</filter>
<filter id="filter24_f_2316_1809" x="120.999" y="16.7402" width="29.4677" height="35.5792" filterUnits="userSpaceOnUse" color-interpolation-filters="sRGB">
<feFlood flood-opacity="0" result="BackgroundImageFix"/>
<feBlend mode="normal" in="SourceGraphic" in2="BackgroundImageFix" result="shape"/>
<feGaussianBlur stdDeviation="5" result="effect1_foregroundBlur_2316_1809"/>
</filter>
<filter id="filter25_f_2316_1809" x="131.98" y="26.6274" width="7.69211" height="11.3157" filterUnits="userSpaceOnUse" color-interpolation-filters="sRGB">
<feFlood flood-opacity="0" result="BackgroundImageFix"/>
<feBlend mode="normal" in="SourceGraphic" in2="BackgroundImageFix" result="shape"/>
<feGaussianBlur stdDeviation="0.5" result="effect1_foregroundBlur_2316_1809"/>
</filter>
<filter id="filter26_f_2316_1809" x="69.3046" y="7.97955" width="29.6248" height="35.3831" filterUnits="userSpaceOnUse" color-interpolation-filters="sRGB">
<feFlood flood-opacity="0" result="BackgroundImageFix"/>
<feBlend mode="normal" in="SourceGraphic" in2="BackgroundImageFix" result="shape"/>
<feGaussianBlur stdDeviation="5" result="effect1_foregroundBlur_2316_1809"/>
</filter>
<filter id="filter27_f_2316_1809" x="79.5988" y="17.9385" width="7.7822" height="11.2" filterUnits="userSpaceOnUse" color-interpolation-filters="sRGB">
<feFlood flood-opacity="0" result="BackgroundImageFix"/>
<feBlend mode="normal" in="SourceGraphic" in2="BackgroundImageFix" result="shape"/>
<feGaussianBlur stdDeviation="0.5" result="effect1_foregroundBlur_2316_1809"/>
</filter>
</defs>
</svg>
